<svg version="1.2" xmlns="http://www.w3.org/2000/svg" viewBox="0 0 327 416" width="327" height="420">
	<title>Club Administrator - Copy-ai</title>
	<defs>
		<linearGradient id="g1" x2="1" gradientUnits="userSpaceOnUse" gradientTransform="matrix(0,349.241,-258.499,0,404,33.071)">
			<stop offset="0" stop-color="#f7941d"/>
			<stop offset="1" stop-color="#ed1c24"/>
		</linearGradient>
		<linearGradient id="g2" x2="1" gradientUnits="userSpaceOnUse" gradientTransform="matrix(0,349.243,-217.747,0,237.84,33.071)">
			<stop offset="0" stop-color="#f7941d"/>
			<stop offset="1" stop-color="#ed1c24"/>
		</linearGradient>
		<linearGradient id="g3" x2="1" gradientUnits="userSpaceOnUse" gradientTransform="matrix(0,349.243,-120.892,0,265.677,33.071)">
			<stop offset="0" stop-color="#f7941d"/>
			<stop offset="1" stop-color="#ed1c24"/>
		</linearGradient>
		<linearGradient id="g4" x2="1" gradientUnits="userSpaceOnUse" gradientTransform="matrix(0,349.242,-116.927,0,272.413,33.071)">
			<stop offset="0" stop-color="#f7941d"/>
			<stop offset="1" stop-color="#ed1c24"/>
		</linearGradient>
		<linearGradient id="g5" x2="1" gradientUnits="userSpaceOnUse" gradientTransform="matrix(0,349.243,-120.892,0,172.831,33.071)">
			<stop offset="0" stop-color="#f7941d"/>
			<stop offset="1" stop-color="#ed1c24"/>
		</linearGradient>
		<linearGradient id="g6" x2="1" gradientUnits="userSpaceOnUse" gradientTransform="matrix(0,349.239,-349.239,0,107.274,33.072)">
			<stop offset="0" stop-color="#f7941d"/>
			<stop offset="1" stop-color="#ed1c24"/>
		</linearGradient>
		<linearGradient id="g7" x2="1" gradientUnits="userSpaceOnUse" gradientTransform="matrix(0,349.239,-349.239,0,147.226,33.072)">
			<stop offset="0" stop-color="#f7941d"/>
			<stop offset="1" stop-color="#ed1c24"/>
		</linearGradient>
		<linearGradient id="g8" x2="1" gradientUnits="userSpaceOnUse" gradientTransform="matrix(0,349.244,-349.239,0,107.274,33.07)">
			<stop offset="0" stop-color="#f7941d"/>
			<stop offset="1" stop-color="#ed1c24"/>
		</linearGradient>
		<linearGradient id="g9" x2="1" gradientUnits="userSpaceOnUse" gradientTransform="matrix(0,349.244,-349.239,0,147.227,33.07)">
			<stop offset="0" stop-color="#f7941d"/>
			<stop offset="1" stop-color="#ed1c24"/>
		</linearGradient>
	</defs>
	<style>
		.s0 { fill: url(#g1) }
		.s1 { fill: url(#g2) }
		.s2 { fill: url(#g3) }
		.s3 { fill: url(#g4) }
		.s4 { fill: url(#g5) }
		.s5 { fill: url(#g6) }
		.s6 { fill: url(#g7) }
		.s7 { fill: url(#g8) }
		.s8 { fill: url(#g9) }
	</style>
	<g id="Layer 1">
		<g id="&lt;Group&gt;">
			<g id="&lt;Group&gt;">
				<path id="&lt;Compound Path&gt;" fill-rule="evenodd" class="s0" d="m299.9 53.8c0 2.1-0.9 4.2-2.3 5.7-1.5 1.5-3.6 2.3-5.7 2.3-16.9 0-32.1 6.8-43.1 17.9-11.1 11.1-17.9 26.3-17.9 43.1v28.7h15.4v-3c0-4.4 3.5-8 7.9-8 4.4 0 8 3.6 8 8v22c0 4.4-3.6 8-8 8-4.4 0-7.9-3.6-7.9-8v-3h-15.4v39.8h15.4v-3c0-4.4 3.5-8 7.9-8 4.4 0 8 3.6 8 8v22c0 4.4-3.6 8-8 8-4.4 0-7.9-3.6-7.9-8v-3h-15.4v33.6q0 0 0 0c0 25.3-10.3 48.3-26.8 64.8-14.8 14.8-34.8 24.6-56.9 26.5v22.6h12c4.4 0 8 3.5 8 7.9 0 4.4-3.6 8-8 8h-39.9c-4.4 0-8-3.6-8-8 0-4.4 3.6-7.9 8-7.9h12v-22.6c-22.1-1.9-42.1-11.7-56.9-26.5-16.5-16.5-26.8-39.5-26.8-64.8 0-25.3 10.3-48.2 26.8-64.8 16.6-16.6 39.6-26.8 64.8-26.8h34.4c4.4 0 8 3.5 8 7.9 0 4.4-3.6 8-8 8h-34.4c-20.9 0-39.8 8.5-53.5 22.2-13.7 13.7-22.1 32.6-22.1 53.5 0 20.9 8.4 39.8 22.1 53.5 12 12 27.8 19.9 45.6 21.8v-11.7c-14.5-1.8-27.6-8.4-37.4-18.2-11.6-11.6-18.8-27.7-18.8-45.4 0-17.7 7.2-33.8 18.8-45.3 11.6-11.6 27.7-18.8 45.3-18.8 17.7 0 33.8 7.2 45.4 18.8 11.6 11.5 18.8 27.6 18.8 45.3 0 17.7-7.2 33.8-18.8 45.4-9.8 9.8-22.9 16.4-37.4 18.2v11.7c17.7-1.9 33.6-9.8 45.6-21.8 13.7-13.7 22.1-32.6 22.1-53.5v-134.1c0-21.2 8.7-40.5 22.6-54.4q3.5-3.5 7.5-6.6h-32.6v-15.9h79.5c2.1 0 4.2 0.8 5.7 2.3 1.4 1.5 2.3 3.5 2.3 5.6zm-152.8 250.6c10.1-1.6 19.2-6.5 26.2-13.4 7-7 11.8-16.1 13.5-26.2-14.9-1-28.3-7.4-38.2-17.3-9.8-9.9-16.2-23.3-17.2-38.1-10.2 1.7-19.2 6.5-26.2 13.5-7 6.9-11.8 16-13.5 26.2 14.9 0.9 28.3 7.3 38.1 17.2 9.9 9.9 16.3 23.3 17.3 38.1zm-16 0c-1-10.5-5.5-19.8-12.5-26.8-7.1-7-16.4-11.6-26.8-12.5 1.7 10 6.5 19 13.4 25.9 6.9 6.9 15.9 11.7 25.9 13.4zm16.3-94.9c0.9 10.4 5.5 19.7 12.5 26.7 7 7 16.4 11.6 26.8 12.5-1.7-10-6.5-18.9-13.4-25.8-6.9-6.9-15.9-11.7-25.9-13.4z"/>
				<path id="&lt;Path&gt;" class="s1" d="m119.5 45.9v17.4c11.5 2.5 21.8 8.3 29.9 16.4 11 11.1 17.8 26.3 17.8 43.1v21.3c0 4.4 3.6 8 8 8 4.4 0 8-3.6 8-8v-21.3c0-21.2-8.6-40.5-22.6-54.4q-3.5-3.5-7.5-6.6h32.7v-15.9z"/>
				<path id="&lt;Path&gt;" class="s2" d="m199.1 30.8c-4.4 0-8 3.6-8 8v30.1c0 4.4 3.6 8 8 8 4.4 0 7.9-3.6 7.9-8v-30.1c0-4.4-3.5-8-7.9-8z"/>
				<path id="&lt;Path&gt;" class="s3" d="m55.6 45.9c-2.1 0-4.2 0.8-5.7 2.3-1.5 1.5-2.3 3.5-2.3 5.6v119.4c0 4.4 3.6 8 8 8 4.4 0 8-3.6 8-8v-111.4h29.3v-15.9z"/>
				<path id="&lt;Path&gt;" class="s4" d="m106.2 30.8c-4.4 0-8 3.6-8 8v30.1c0 4.4 3.6 8 8 8 4.4 0 8-3.6 8-8v-30.1c0-4.4-3.6-8-8-8z"/>
				<path id="&lt;Path&gt;" class="s5" d="m86.5 116.5h12.8c2.1 0 4.2-0.9 5.6-2.4 1.5-1.4 2.4-3.5 2.4-5.6v-12.8c0-2.1-0.9-4.1-2.4-5.6-1.4-1.5-3.5-2.3-5.6-2.3h-12.8c-2.1 0-4.1 0.8-5.6 2.3-1.5 1.5-2.3 3.5-2.3 5.6v12.8c0 2.1 0.8 4.2 2.3 5.6 1.5 1.5 3.5 2.4 5.6 2.4z"/>
				<path id="&lt;Path&gt;" class="s6" d="m126.5 116.5h12.7c2.1 0 4.2-0.9 5.7-2.4 1.5-1.4 2.3-3.5 2.3-5.6v-12.8c0-2.1-0.8-4.1-2.3-5.6-1.5-1.5-3.6-2.3-5.7-2.3h-12.7c-2.1 0-4.2 0.8-5.7 2.3-1.4 1.5-2.3 3.5-2.3 5.6v12.8c0 2.1 0.9 4.2 2.3 5.6 1.5 1.5 3.6 2.4 5.7 2.4z"/>
				<path id="&lt;Path&gt;" class="s7" d="m78.6 147.9c0 2.1 0.8 4.1 2.3 5.6 1.5 1.5 3.5 2.4 5.6 2.4h12.8c2.1 0 4.2-0.9 5.6-2.4 1.5-1.5 2.4-3.5 2.4-5.6v-12.8c0-2.1-0.9-4.1-2.4-5.6-1.4-1.5-3.5-2.3-5.6-2.3h-12.8c-2.1 0-4.1 0.8-5.6 2.3-1.5 1.5-2.3 3.5-2.3 5.6z"/>
				<path id="&lt;Path&gt;" class="s8" d="m118.5 147.9c0 2.1 0.9 4.1 2.3 5.6 1.5 1.5 3.6 2.4 5.7 2.4h12.7c2.1 0 4.2-0.9 5.7-2.4 1.5-1.5 2.3-3.5 2.3-5.6v-12.8c0-2.1-0.8-4.1-2.3-5.6-1.5-1.5-3.6-2.3-5.7-2.3h-12.7c-2.1 0-4.2 0.8-5.7 2.3-1.4 1.5-2.3 3.5-2.3 5.6z"/>
			</g>
		</g>
	</g>
</svg>
