<svg version="1.2" xmlns="http://www.w3.org/2000/svg" viewBox="0 0 1288 416" width="1288" height="416">
	<title>Club Administrator - Copy-ai</title>
	<defs>
		<linearGradient id="g1" x2="1" gradientUnits="userSpaceOnUse" gradientTransform="matrix(0,349.241,-258.499,0,404,33.071)">
			<stop offset="0" stop-color="#f7941d"/>
			<stop offset="1" stop-color="#ed1c24"/>
		</linearGradient>
		<linearGradient id="g2" x2="1" gradientUnits="userSpaceOnUse" gradientTransform="matrix(0,349.243,-217.747,0,237.84,33.071)">
			<stop offset="0" stop-color="#f7941d"/>
			<stop offset="1" stop-color="#ed1c24"/>
		</linearGradient>
		<linearGradient id="g3" x2="1" gradientUnits="userSpaceOnUse" gradientTransform="matrix(0,349.243,-120.892,0,265.677,33.071)">
			<stop offset="0" stop-color="#f7941d"/>
			<stop offset="1" stop-color="#ed1c24"/>
		</linearGradient>
		<linearGradient id="g4" x2="1" gradientUnits="userSpaceOnUse" gradientTransform="matrix(0,349.242,-116.927,0,272.413,33.071)">
			<stop offset="0" stop-color="#f7941d"/>
			<stop offset="1" stop-color="#ed1c24"/>
		</linearGradient>
		<linearGradient id="g5" x2="1" gradientUnits="userSpaceOnUse" gradientTransform="matrix(0,349.243,-120.892,0,172.831,33.071)">
			<stop offset="0" stop-color="#f7941d"/>
			<stop offset="1" stop-color="#ed1c24"/>
		</linearGradient>
		<linearGradient id="g6" x2="1" gradientUnits="userSpaceOnUse" gradientTransform="matrix(0,349.239,-349.239,0,107.274,33.072)">
			<stop offset="0" stop-color="#f7941d"/>
			<stop offset="1" stop-color="#ed1c24"/>
		</linearGradient>
		<linearGradient id="g7" x2="1" gradientUnits="userSpaceOnUse" gradientTransform="matrix(0,349.239,-349.239,0,147.226,33.072)">
			<stop offset="0" stop-color="#f7941d"/>
			<stop offset="1" stop-color="#ed1c24"/>
		</linearGradient>
		<linearGradient id="g8" x2="1" gradientUnits="userSpaceOnUse" gradientTransform="matrix(0,349.244,-349.239,0,107.274,33.07)">
			<stop offset="0" stop-color="#f7941d"/>
			<stop offset="1" stop-color="#ed1c24"/>
		</linearGradient>
		<linearGradient id="g9" x2="1" gradientUnits="userSpaceOnUse" gradientTransform="matrix(0,349.244,-349.239,0,147.227,33.07)">
			<stop offset="0" stop-color="#f7941d"/>
			<stop offset="1" stop-color="#ed1c24"/>
		</linearGradient>
	</defs>
	<style>
		.s0 { fill: #000000 }
		.s1 { fill: url(#g1) }
		.s2 { fill: url(#g2) }
		.s3 { fill: url(#g3) }
		.s4 { fill: url(#g4) }
		.s5 { fill: url(#g5) }
		.s6 { fill: url(#g6) }
		.s7 { fill: url(#g7) }
		.s8 { fill: url(#g8) }
		.s9 { fill: url(#g9) }
	</style>
	<g id="Layer 1">
		<g id="&lt;Group&gt;">
			<g id="&lt;Group&gt;">
				<path id="&lt;Compound Path&gt;" class="s0" d="m382.5 161q0 4.9-2.4 10.6-2.4 5.7-7.6 11.2-5.2 5.5-13.3 9-8 3.4-18.8 3.4-8.1 0-14.8-1.5-6.6-1.6-12.1-4.8-5.4-3.3-10-8.6-4-4.9-6.9-10.9-2.9-6-4.3-12.8-1.5-6.8-1.5-14.4 0-12.4 3.6-22.3 3.7-9.8 10.4-16.8 6.7-6.9 15.8-10.6 9-3.6 19.3-3.6 12.5 0 22.2 4.9 9.8 5 15 12.4 5.1 7.3 5.1 13.8 0 3.6-2.5 6.3-2.5 2.8-6.1 2.8-4 0-6-1.9-2-1.9-4.4-6.6-4.1-7.6-9.6-11.4-5.5-3.8-13.6-3.8-12.8 0-20.4 9.8-7.6 9.7-7.6 27.7 0 12 3.3 19.9 3.4 8 9.6 11.9 6.1 4 14.4 4 9 0 15.2-4.5 6.2-4.4 9.4-13.1 1.3-4 3.3-6.6 1.9-2.6 6.3-2.6 3.7 0 6.4 2.6 2.6 2.6 2.6 6.5z"/>
				<path id="&lt;Compound Path&gt;" class="s0" d="m399.9 183.6v-83.1q0-5.7 2.6-8.7 2.5-2.9 6.9-2.9 4.3 0 7 2.9 2.7 2.9 2.7 8.7v83.1q0 5.8-2.7 8.7-2.7 2.9-7 2.9-4.2 0-6.8-3-2.7-3-2.7-8.6z"/>
				<path id="&lt;Compound Path&gt;" class="s0" d="m488.6 184.4v-2.4q-3.4 4.3-7.2 7.3-3.8 2.9-8.3 4.3-4.5 1.5-10.2 1.5-7 0-12.5-2.9-5.5-2.9-8.5-7.9-3.6-6.1-3.6-17.6v-37.9q0-5.8 2.6-8.6 2.6-2.9 6.9-2.9 4.3 0 7 2.9 2.6 2.9 2.6 8.6v30.6q0 6.7 1.2 11.2 1.1 4.6 4 7.1 2.9 2.6 7.9 2.6 4.8 0 9.1-2.9 4.3-2.9 6.3-7.5 1.6-4.1 1.6-17.8v-23.3q0-5.7 2.6-8.6 2.7-2.9 7-2.9 4.3 0 6.9 2.9 2.6 2.8 2.6 8.6v55.5q0 5.4-2.5 8.2-2.5 2.7-6.5 2.7-3.9 0-6.4-2.8-2.6-2.9-2.6-8z"/>
				<path id="&lt;Compound Path&gt;" fill-rule="evenodd" class="s0" d="m543.3 99.8v29.3q5.4-5.6 11-8.6 5.6-3 13.9-3 9.6 0 16.7 4.5 7.2 4.5 11.2 13.1 4 8.6 4 20.4 0 8.7-2.2 16-2.3 7.2-6.5 12.6-4.2 5.3-10.2 8.2-6 2.9-13.2 2.9-4.4 0-8.3-1-3.9-1.1-6.6-2.8-2.8-1.7-4.7-3.5-1.9-1.9-5.1-5.5v1.9q0 5.4-2.6 8.1-2.6 2.8-6.6 2.8-4 0-6.5-2.8-2.4-2.7-2.4-8.1v-83.6q0-5.9 2.4-8.9 2.3-2.9 6.5-2.9 4.4 0 6.8 2.8 2.4 2.8 2.4 8.1zm0.9 56.9q0 11.4 5.3 17.6 5.2 6.1 13.7 6.1 7.2 0 12.4-6.3 5.2-6.2 5.2-18 0-7.5-2.1-13-2.2-5.5-6.2-8.5-4-2.9-9.3-2.9-5.5 0-9.8 2.9-4.3 3-6.7 8.7-2.5 5.6-2.5 13.4z"/>
				<path id="&lt;Compound Path&gt;" fill-rule="evenodd" class="s0" d="m360.7 315.2l-4.9-12.9h-41.8l-4.9 13.2q-2.9 7.7-4.9 10.4-2.1 2.7-6.7 2.7-3.9 0-6.9-2.8-3.1-2.9-3.1-6.6 0-2.1 0.7-4.3 0.7-2.3 2.4-6.3l26.3-66.8q1.1-2.8 2.7-6.9 1.5-4 3.3-6.7 1.8-2.6 4.7-4.3 2.9-1.6 7.2-1.6 4.4 0 7.3 1.6 2.9 1.7 4.7 4.3 1.8 2.6 3 5.5 1.2 3 3.1 8l26.9 66.4q3.1 7.5 3.1 11 0 3.6-2.9 6.5-3 3-7.2 3-2.5 0-4.2-0.8-1.8-0.9-3-2.4-1.2-1.5-2.5-4.7-1.4-3.1-2.4-5.5zm-41.2-28.5h30.7l-15.5-42.5z"/>
				<path id="&lt;Compound Path&gt;" fill-rule="evenodd" class="s0" d="m449.4 317.7v-1.9q-3.9 4.4-7.6 7.2-3.8 2.8-8.2 4.2-4.4 1.4-9.5 1.4-6.9 0-12.8-2.9-5.8-2.9-10.1-8.3-4.3-5.4-6.5-12.7-2.2-7.3-2.2-15.8 0-17.9 8.8-28 8.7-10 23-10 8.3 0 14 2.8 5.7 2.9 11.1 8.8v-28.3q0-5.9 2.3-8.9 2.4-3 6.7-3 4.4 0 6.7 2.7 2.4 2.8 2.4 8.2v84.5q0 5.5-2.5 8.2-2.6 2.7-6.6 2.7-3.9 0-6.5-2.8-2.5-2.9-2.5-8.1zm-37.7-28.1q0 7.7 2.4 13.2 2.4 5.5 6.7 8.3 4.2 2.7 9.1 2.7 5.1 0 9.3-2.6 4.1-2.6 6.6-8.1 2.5-5.4 2.5-13.5 0-7.7-2.5-13.2-2.5-5.5-6.7-8.4-4.2-2.9-9.3-2.9-5.3 0-9.4 3-4.1 2.9-6.4 8.5-2.3 5.6-2.3 13z"/>
				<path id="&lt;Compound Path&gt;" class="s0" d="m550.4 291.1v25.5q0 6-2.7 9-2.8 3-7.3 3-4.3 0-7-3-2.7-3-2.7-9v-30.6q0-7.2-0.5-11.2-0.5-4-2.7-6.5-2.1-2.6-6.8-2.6-9.4 0-12.4 6.5-3 6.4-3 18.5v25.9q0 5.9-2.7 9-2.7 3-7.1 3-4.4 0-7.2-3-2.7-3.1-2.7-9v-54.8q0-5.4 2.5-8.2 2.5-2.8 6.5-2.8 4 0 6.6 2.6 2.6 2.6 2.6 7.2v1.9q5-6 10.7-8.8 5.7-2.8 12.6-2.8 7.2 0 12.4 2.9 5.2 2.9 8.6 8.7 4.8-5.9 10.4-8.8 5.5-2.8 12.2-2.8 7.9 0 13.6 3.1 5.7 3.1 8.5 8.8 2.4 5.2 2.4 16.4v37.4q0 6-2.7 9-2.7 3-7.2 3-4.4 0-7.2-3-2.7-3.1-2.7-9v-32.2q0-6.2-0.6-9.9-0.5-3.7-2.8-6.3-2.3-2.5-7-2.5-3.8 0-7.2 2.2-3.4 2.3-5.3 6.1-2.1 4.8-2.1 17.1z"/>
				<path id="&lt;Compound Path&gt;" class="s0" d="m623.5 241.8q-4 0-6.8-2.4-2.9-2.5-2.9-7 0-4 2.9-6.7 2.9-2.6 6.8-2.6 3.7 0 6.6 2.4 2.9 2.4 2.9 6.9 0 4.5-2.8 7-2.8 2.4-6.7 2.4zm9.5 19.8v55.4q0 5.7-2.8 8.7-2.7 2.9-6.9 2.9-4.2 0-6.9-3-2.6-3-2.6-8.6v-54.8q0-5.7 2.6-8.6 2.7-2.8 6.9-2.8 4.2 0 6.9 2.8 2.8 2.9 2.8 8z"/>
				<path id="&lt;Compound Path&gt;" class="s0" d="m670.1 261.4v2.3q5.1-6.7 11.1-9.8 6-3.1 13.8-3.1 7.6 0 13.5 3.3 6 3.3 8.9 9.3 1.9 3.5 2.5 7.6 0.5 4 0.5 10.3v35.7q0 5.7-2.6 8.7-2.6 2.9-6.8 2.9-4.3 0-7-3-2.6-3-2.6-8.6v-31.9q0-9.5-2.7-14.5-2.6-5-10.4-5-5.2 0-9.4 3-4.2 3.1-6.2 8.4-1.4 4.3-1.4 16v24q0 5.8-2.7 8.7-2.7 2.9-6.9 2.9-4.2 0-6.8-3-2.7-3-2.7-8.6v-55.4q0-5.4 2.4-8.1 2.4-2.7 6.5-2.7 2.5 0 4.6 1.2 2 1.1 3.2 3.5 1.2 2.4 1.2 5.9z"/>
				<path id="&lt;Compound Path&gt;" class="s0" d="m749.2 241.8q-4 0-6.8-2.4-2.9-2.5-2.9-7 0-4 2.9-6.7 3-2.6 6.8-2.6 3.7 0 6.6 2.4 2.9 2.4 2.9 6.9 0 4.5-2.8 7-2.8 2.4-6.7 2.4zm9.5 19.8v55.4q0 5.7-2.8 8.7-2.7 2.9-6.9 2.9-4.2 0-6.8-3-2.7-3-2.7-8.6v-54.8q0-5.7 2.7-8.6 2.6-2.8 6.8-2.8 4.2 0 6.9 2.8 2.8 2.9 2.8 8z"/>
				<path id="&lt;Compound Path&gt;" class="s0" d="m840.1 303.6q0 7.9-3.8 13.6-3.9 5.6-11.4 8.5-7.6 2.9-18.4 2.9-10.3 0-17.7-3.1-7.3-3.2-10.8-7.9-3.5-4.8-3.5-9.5 0-3.2 2.2-5.4 2.3-2.3 5.7-2.3 3 0 4.6 1.5 1.6 1.5 3.1 4.1 3 5.2 7.1 7.7 4.1 2.5 11.2 2.5 5.7 0 9.4-2.5 3.7-2.6 3.7-5.9 0-5.1-3.9-7.4-3.8-2.3-12.5-4.4-9.9-2.4-16.1-5.1-6.3-2.8-10-7.2-3.7-4.4-3.7-10.8 0-5.8 3.4-10.9 3.5-5.1 10.2-8.2 6.7-3 16.2-3 7.4 0 13.3 1.5 5.9 1.5 9.9 4.1 4 2.6 6 5.8 2.1 3.2 2.1 6.2 0 3.3-2.2 5.4-2.2 2.1-6.3 2.1-2.9 0-5-1.7-2.1-1.7-4.7-5.1-2.2-2.8-5.1-4.5-3-1.6-8-1.6-5.2 0-8.7 2.2-3.4 2.2-3.4 5.5 0 3 2.5 4.9 2.5 2 6.8 3.2 4.3 1.3 11.8 3.1 8.9 2.2 14.6 5.2 5.6 3 8.5 7.1 2.9 4.1 2.9 9.4z"/>
				<path id="&lt;Compound Path&gt;" class="s0" d="m857.4 252.4h2.1v-11.5q0-4.6 0.2-7.2 0.3-2.7 1.4-4.5 1.1-2 3.2-3.2 2.1-1.3 4.7-1.3 3.7 0 6.6 2.8 2 1.8 2.5 4.4 0.5 2.7 0.5 7.5v13h7.1q4 0 6.2 2 2.1 1.9 2.1 4.9 0 3.9-3 5.4-3.1 1.6-8.8 1.6h-3.6v35.2q0 4.5 0.4 6.9 0.3 2.4 1.6 3.9 1.4 1.5 4.5 1.5 1.7 0 4.6-0.6 2.8-0.6 4.4-0.6 2.4 0 4.2 1.9 1.9 1.9 1.9 4.6 0 4.6-5.1 7.1-5 2.4-14.5 2.4-9 0-13.6-3-4.6-3-6.1-8.3-1.4-5.4-1.4-14.3v-36.7h-2.5q-4.2 0-6.3-2-2.2-2-2.2-5 0-3 2.3-4.9 2.2-2 6.6-2z"/>
				<path id="&lt;Compound Path&gt;" class="s0" d="m926.2 301v16q0 5.8-2.7 8.7-2.8 2.9-7 2.9-4.1 0-6.8-2.9-2.6-3-2.6-8.7v-53.3q0-12.9 9.3-12.9 4.8 0 6.9 3 2.1 3 2.3 8.9 3.4-5.9 7-8.9 3.6-3 9.7-3 6 0 11.7 3 5.7 3 5.7 8 0 3.5-2.5 5.8-2.4 2.2-5.2 2.2-1 0-5.1-1.3-4-1.3-7.1-1.3-4.2 0-6.9 2.3-2.6 2.2-4.1 6.5-1.5 4.4-2 10.4-0.6 6-0.6 14.6z"/>
				<path id="&lt;Compound Path&gt;" fill-rule="evenodd" class="s0" d="m1014.9 317.8q-6.9 5.4-13.4 8.1-6.5 2.7-14.5 2.7-7.4 0-13-2.9-5.6-2.9-8.6-7.9-3-5-3-10.8 0-7.8 5-13.4 5-5.5 13.7-7.4 1.8-0.4 9-1.9 7.2-1.5 12.4-2.7 5.2-1.2 11.2-3-0.4-7.6-3.1-11.1-2.7-3.6-11.2-3.6-7.3 0-10.9 2.1-3.7 2-6.3 6.1-2.7 4.1-3.8 5.4-1.1 1.2-4.6 1.2-3.3 0-5.6-2-2.4-2.1-2.4-5.3 0-5.1 3.6-9.8 3.6-4.8 11.2-7.9 7.6-3.1 18.8-3.1 12.7 0 19.9 3 7.2 3 10.2 9.4 3 6.5 3 17.2 0 6.7 0 11.4-0.1 4.7-0.2 10.4 0 5.4 1.8 11.3 1.8 5.9 1.8 7.5 0 3-2.7 5.4-2.8 2.4-6.3 2.4-3 0-5.8-2.7-2.9-2.8-6.2-8.1zm-1.2-27.7q-4.2 1.6-12.3 3.3-8 1.7-11.1 2.5-3.1 0.8-5.9 3.2-2.8 2.3-2.8 6.5 0 4.4 3.3 7.4 3.3 3.1 8.7 3.1 5.6 0 10.4-2.5 4.8-2.5 7.1-6.4 2.6-4.4 2.6-14.4z"/>
				<path id="&lt;Compound Path&gt;" class="s0" d="m1049.4 252.4h2.1v-11.5q0-4.6 0.2-7.2 0.3-2.7 1.4-4.5 1.1-2 3.2-3.2 2.1-1.3 4.7-1.3 3.7 0 6.6 2.8 2 1.8 2.5 4.4 0.6 2.7 0.6 7.5v13h7q4 0 6.2 2 2.1 1.9 2.1 4.9 0 3.9-3 5.4-3.1 1.6-8.8 1.6h-3.5v35.2q0 4.5 0.3 6.9 0.3 2.4 1.7 3.9 1.3 1.5 4.4 1.5 1.7 0 4.6-0.6 2.8-0.6 4.5-0.6 2.3 0 4.1 1.9 1.9 1.9 1.9 4.6 0 4.6-5.1 7.1-5 2.4-14.5 2.4-9 0-13.6-3-4.6-3-6.1-8.3-1.4-5.4-1.4-14.3v-36.7h-2.5q-4.2 0-6.3-2-2.2-2-2.2-5 0-3 2.3-4.9 2.2-2 6.6-2z"/>
				<path id="&lt;Compound Path&gt;" fill-rule="evenodd" class="s0" d="m1170.9 289.7q0 8.6-2.7 15.8-2.6 7.2-7.7 12.4-5 5.2-12 8-7.1 2.7-15.8 2.7-8.7 0-15.7-2.8-6.9-2.8-12-8-5.1-5.2-7.7-12.4-2.7-7.1-2.7-15.7 0-8.7 2.7-15.9 2.7-7.3 7.7-12.4 4.9-5.1 12-7.9 7.1-2.7 15.7-2.7 8.7 0 15.8 2.8 7 2.8 12.1 8 5 5.2 7.7 12.3 2.6 7.2 2.6 15.8zm-19.2 0q0-11.7-5.2-18.2-5.1-6.6-13.8-6.6-5.6 0-9.9 2.9-4.3 3-6.6 8.6-2.3 5.7-2.3 13.3 0 7.5 2.2 13.1 2.3 5.6 6.6 8.6 4.2 3 10 3 8.7 0 13.8-6.6 5.2-6.5 5.2-18.1z"/>
				<path id="&lt;Compound Path&gt;" class="s0" d="m1205 301v16q0 5.8-2.7 8.7-2.8 2.9-7 2.9-4.1 0-6.8-2.9-2.7-3-2.7-8.7v-53.3q0-12.9 9.4-12.9 4.7 0 6.8 3 2.1 3 2.4 8.9 3.4-5.9 7-8.9 3.6-3 9.7-3 6 0 11.7 3 5.7 3 5.7 8 0 3.5-2.5 5.8-2.4 2.2-5.2 2.2-1 0-5.1-1.3-4-1.3-7.1-1.3-4.2 0-6.9 2.3-2.6 2.2-4.1 6.5-1.5 4.4-2 10.4-0.6 6-0.6 14.6z"/>
			</g>
			<g id="&lt;Group&gt;">
				<path id="&lt;Compound Path&gt;" fill-rule="evenodd" class="s1" d="m299.9 53.8c0 2.1-0.9 4.2-2.3 5.7-1.5 1.5-3.6 2.3-5.7 2.3-16.9 0-32.1 6.8-43.1 17.9-11.1 11.1-17.9 26.3-17.9 43.1v28.7h15.4v-3c0-4.4 3.5-8 7.9-8 4.4 0 8 3.6 8 8v22c0 4.4-3.6 8-8 8-4.4 0-7.9-3.6-7.9-8v-3h-15.4v39.8h15.4v-3c0-4.4 3.5-8 7.9-8 4.4 0 8 3.6 8 8v22c0 4.4-3.6 8-8 8-4.4 0-7.9-3.6-7.9-8v-3h-15.4v33.6q0 0 0 0c0 25.3-10.3 48.3-26.8 64.8-14.8 14.8-34.8 24.6-56.9 26.5v22.6h12c4.4 0 8 3.5 8 7.9 0 4.4-3.6 8-8 8h-39.9c-4.4 0-8-3.6-8-8 0-4.4 3.6-7.9 8-7.9h12v-22.6c-22.1-1.9-42.1-11.7-56.9-26.5-16.5-16.5-26.8-39.5-26.8-64.8 0-25.3 10.3-48.2 26.8-64.8 16.6-16.6 39.6-26.8 64.8-26.8h34.4c4.4 0 8 3.5 8 7.9 0 4.4-3.6 8-8 8h-34.4c-20.9 0-39.8 8.5-53.5 22.2-13.7 13.7-22.1 32.6-22.1 53.5 0 20.9 8.4 39.8 22.1 53.5 12 12 27.8 19.9 45.6 21.8v-11.7c-14.5-1.8-27.6-8.4-37.4-18.2-11.6-11.6-18.8-27.7-18.8-45.4 0-17.7 7.2-33.8 18.8-45.3 11.6-11.6 27.7-18.8 45.3-18.8 17.7 0 33.8 7.2 45.4 18.8 11.6 11.5 18.8 27.6 18.8 45.3 0 17.7-7.2 33.8-18.8 45.4-9.8 9.8-22.9 16.4-37.4 18.2v11.7c17.7-1.9 33.6-9.8 45.6-21.8 13.7-13.7 22.1-32.6 22.1-53.5v-134.1c0-21.2 8.7-40.5 22.6-54.4q3.5-3.5 7.5-6.6h-32.6v-15.9h79.5c2.1 0 4.2 0.8 5.7 2.3 1.4 1.5 2.3 3.5 2.3 5.6zm-152.8 250.6c10.1-1.6 19.2-6.5 26.2-13.4 7-7 11.8-16.1 13.5-26.2-14.9-1-28.3-7.4-38.2-17.3-9.8-9.9-16.2-23.3-17.2-38.1-10.2 1.7-19.2 6.5-26.2 13.5-7 6.9-11.8 16-13.5 26.2 14.9 0.9 28.3 7.3 38.1 17.2 9.9 9.9 16.3 23.3 17.3 38.1zm-16 0c-1-10.5-5.5-19.8-12.5-26.8-7.1-7-16.4-11.6-26.8-12.5 1.7 10 6.5 19 13.4 25.9 6.9 6.9 15.9 11.7 25.9 13.4zm16.3-94.9c0.9 10.4 5.5 19.7 12.5 26.7 7 7 16.4 11.6 26.8 12.5-1.7-10-6.5-18.9-13.4-25.8-6.9-6.9-15.9-11.7-25.9-13.4z"/>
				<path id="&lt;Path&gt;" class="s2" d="m119.5 45.9v17.4c11.5 2.5 21.8 8.3 29.9 16.4 11 11.1 17.8 26.3 17.8 43.1v21.3c0 4.4 3.6 8 8 8 4.4 0 8-3.6 8-8v-21.3c0-21.2-8.6-40.5-22.6-54.4q-3.5-3.5-7.5-6.6h32.7v-15.9z"/>
				<path id="&lt;Path&gt;" class="s3" d="m199.1 30.8c-4.4 0-8 3.6-8 8v30.1c0 4.4 3.6 8 8 8 4.4 0 7.9-3.6 7.9-8v-30.1c0-4.4-3.5-8-7.9-8z"/>
				<path id="&lt;Path&gt;" class="s4" d="m55.6 45.9c-2.1 0-4.2 0.8-5.7 2.3-1.5 1.5-2.3 3.5-2.3 5.6v119.4c0 4.4 3.6 8 8 8 4.4 0 8-3.6 8-8v-111.4h29.3v-15.9z"/>
				<path id="&lt;Path&gt;" class="s5" d="m106.2 30.8c-4.4 0-8 3.6-8 8v30.1c0 4.4 3.6 8 8 8 4.4 0 8-3.6 8-8v-30.1c0-4.4-3.6-8-8-8z"/>
				<path id="&lt;Path&gt;" class="s6" d="m86.5 116.5h12.8c2.1 0 4.2-0.9 5.6-2.4 1.5-1.4 2.4-3.5 2.4-5.6v-12.8c0-2.1-0.9-4.1-2.4-5.6-1.4-1.5-3.5-2.3-5.6-2.3h-12.8c-2.1 0-4.1 0.8-5.6 2.3-1.5 1.5-2.3 3.5-2.3 5.6v12.8c0 2.1 0.8 4.2 2.3 5.6 1.5 1.5 3.5 2.4 5.6 2.4z"/>
				<path id="&lt;Path&gt;" class="s7" d="m126.5 116.5h12.7c2.1 0 4.2-0.9 5.7-2.4 1.5-1.4 2.3-3.5 2.3-5.6v-12.8c0-2.1-0.8-4.1-2.3-5.6-1.5-1.5-3.6-2.3-5.7-2.3h-12.7c-2.1 0-4.2 0.8-5.7 2.3-1.4 1.5-2.3 3.5-2.3 5.6v12.8c0 2.1 0.9 4.2 2.3 5.6 1.5 1.5 3.6 2.4 5.7 2.4z"/>
				<path id="&lt;Path&gt;" class="s8" d="m78.6 147.9c0 2.1 0.8 4.1 2.3 5.6 1.5 1.5 3.5 2.4 5.6 2.4h12.8c2.1 0 4.2-0.9 5.6-2.4 1.5-1.5 2.4-3.5 2.4-5.6v-12.8c0-2.1-0.9-4.1-2.4-5.6-1.4-1.5-3.5-2.3-5.6-2.3h-12.8c-2.1 0-4.1 0.8-5.6 2.3-1.5 1.5-2.3 3.5-2.3 5.6z"/>
				<path id="&lt;Path&gt;" class="s9" d="m118.5 147.9c0 2.1 0.9 4.1 2.3 5.6 1.5 1.5 3.6 2.4 5.7 2.4h12.7c2.1 0 4.2-0.9 5.7-2.4 1.5-1.5 2.3-3.5 2.3-5.6v-12.8c0-2.1-0.8-4.1-2.3-5.6-1.5-1.5-3.6-2.3-5.7-2.3h-12.7c-2.1 0-4.2 0.8-5.7 2.3-1.4 1.5-2.3 3.5-2.3 5.6z"/>
			</g>
		</g>
	</g>
</svg>
